<svg width="45" height="45" viewBox="0 0 45 45" fill="none" xmlns="http://www.w3.org/2000/svg">
<rect width="45" height="45" rx="22.5" fill="#EFEFEF"/>
<path d="M31.193 24.0027H23.6646V31.5311C23.6646 31.9304 23.506 32.3134 23.2236 32.5957C22.9412 32.8781 22.5582 33.0367 22.1589 33.0367C21.7596 33.0367 21.3766 32.8781 21.0942 32.5957C20.8119 32.3134 20.6532 31.9304 20.6532 31.5311V24.0027H13.1248C12.7255 24.0027 12.3425 23.844 12.0601 23.5616C11.7778 23.2793 11.6191 22.8963 11.6191 22.497C11.6191 22.0976 11.7778 21.7147 12.0601 21.4323C12.3425 21.1499 12.7255 20.9913 13.1248 20.9913H20.6532V13.4629C20.6532 13.0635 20.8119 12.6806 21.0942 12.3982C21.3766 12.1158 21.7596 11.9572 22.1589 11.9572C22.5582 11.9572 22.9412 12.1158 23.2236 12.3982C23.506 12.6806 23.6646 13.0635 23.6646 13.4629V20.9913H31.193C31.5923 20.9913 31.9753 21.1499 32.2577 21.4323C32.5401 21.7147 32.6987 22.0976 32.6987 22.497C32.6987 22.8963 32.5401 23.2793 32.2577 23.5616C31.9753 23.844 31.5923 24.0027 31.193 24.0027Z" fill="#AEAEAE"/>
</svg>
