<svg width="174" height="82" viewBox="0 0 174 82" fill="none" xmlns="http://www.w3.org/2000/svg">
<rect width="82" height="82" rx="6.33694" fill="#FF481B"/>
<path d="M60.8096 30.7256C59.0088 29.0372 56.9943 28.193 54.7661 28.193C52.5074 28.193 50.4776 29.0372 48.6767 30.7256C46.9369 32.414 45.7313 34.5821 45.0597 37.2299H64.4266C63.7551 34.5821 62.5495 32.414 60.8096 30.7256ZM70.6991 44.7702L45.0597 44.8278C45.7313 47.4371 46.9369 49.586 48.6767 51.2745C50.4776 52.9629 52.5074 53.8071 54.7661 53.8071C56.5669 53.8071 58.3678 53.2891 60.1687 52.253C62.0611 51.1785 63.4499 49.8163 64.3351 48.1662L69.3256 52.4257C67.891 55.1118 65.8002 57.2799 63.0531 58.9299C60.3365 60.58 57.5742 61.405 54.7661 61.405C50.2792 61.405 46.4486 59.4096 43.2742 55.4188C40.0998 51.428 38.5126 46.6313 38.5126 41.0288C38.5126 35.388 40.0998 30.5721 43.2742 26.5813C46.4486 22.5905 50.2792 20.5951 54.7661 20.5951C59.2225 20.5951 63.0378 22.5905 66.2122 26.5813C69.3866 30.5721 70.9738 35.388 70.9738 41.0288C70.9738 42.2951 70.8823 43.5423 70.6991 44.7702Z" fill="white"/>
<path d="M21.1905 30.7256C22.9914 29.0372 25.0059 28.193 27.2341 28.193C29.4928 28.193 31.5226 29.0372 33.3235 30.7256C35.0633 32.414 36.2689 34.5821 36.9404 37.2299H17.5736C18.2451 34.5821 19.4507 32.414 21.1905 30.7256ZM11.3011 44.7702L36.9404 44.8278C36.2689 47.4371 35.0633 49.586 33.3235 51.2745C31.5226 52.9629 29.4928 53.8071 27.2341 53.8071C25.4333 53.8071 23.6324 53.2891 21.8315 52.253C19.9391 51.1785 18.5503 49.8163 17.6651 48.1662L12.6746 52.4257C14.1092 55.1118 16.2 57.2799 18.9471 58.9299C21.6637 60.58 24.426 61.405 27.2341 61.405C31.721 61.405 35.5516 59.4096 38.726 55.4188C41.9004 51.428 43.4876 46.6313 43.4876 41.0288C43.4876 35.388 41.9004 30.5721 38.726 26.5813C35.5516 22.5905 31.721 20.5951 27.2341 20.5951C22.7777 20.5951 18.9624 22.5905 15.788 26.5813C12.6136 30.5721 11.0264 35.388 11.0264 41.0288C11.0264 42.2951 11.1179 43.5423 11.3011 44.7702Z" fill="white"/>
<path d="M101.565 45.7849C101.565 40.6827 105.944 36.8135 111.386 36.8135C116.786 36.8135 121.166 40.6827 121.166 45.7849C121.166 50.8871 116.786 54.7563 111.386 54.7563C105.944 54.7563 101.565 50.8871 101.565 45.7849ZM131.54 37.4087V72.4015C131.54 73.0818 130.562 73.3794 129.202 73.3794C127.841 73.3794 126.821 73.0818 126.821 72.4015V37.4087H131.54ZM98.8859 56.8822H123.759C124.482 56.8822 124.78 57.605 124.78 58.9656C124.78 60.3687 124.482 61.0065 123.759 61.0065H113.13V71.9763C113.13 72.6566 112.152 72.9542 110.791 72.9542C109.431 72.9542 108.41 72.6566 108.41 71.9763V61.0065H98.8859V56.8822ZM116.489 45.7849C116.489 42.7236 114.448 40.6401 111.386 40.6401C108.283 40.6401 106.242 42.7236 106.242 45.7849C106.242 48.8462 108.283 50.9296 111.386 50.9296C114.448 50.9296 116.489 48.8462 116.489 45.7849ZM168.538 36.9836V60.0286C168.538 60.7939 167.688 61.0065 166.199 61.0065C164.711 61.0065 163.818 60.7939 163.818 59.9861V36.9836H168.538ZM151.956 47.3156C151.956 44.0416 149.787 41.5756 146.598 41.5756C143.409 41.5756 141.241 44.0416 141.241 47.3156C141.241 50.5895 143.409 52.928 146.598 52.928C149.787 52.928 151.956 50.5895 151.956 47.3156ZM156.633 47.3156C156.633 52.7579 152.381 56.9673 146.598 56.9673C140.816 56.9673 136.564 52.7579 136.564 47.3156C136.564 41.8732 140.816 37.5363 146.598 37.5363C152.381 37.5363 156.633 41.8732 156.633 47.3156ZM155.867 67.0441C153.912 70.9559 148.172 74.825 144.642 76.1856C144.132 76.3982 143.792 76.1856 142.899 74.6975C142.176 73.507 142.049 72.9117 142.559 72.6566C146.173 70.9133 150.382 68.1071 152.168 65.2159C153.061 63.7277 153.274 62.197 153.274 60.964V59.3908H158.248V60.964C158.248 62.197 158.504 63.6001 159.396 65.0883C161.182 67.9796 165.009 70.7007 168.963 72.6991C169.516 72.9542 169.431 73.3369 168.708 74.655C167.985 75.973 167.645 76.2281 167.135 76.0156C163.351 74.4849 157.993 71.0834 155.867 67.0441Z" fill="black"/>
</svg>
