<svg width="71" height="18" viewBox="0 0 71 18" fill="none" xmlns="http://www.w3.org/2000/svg">
<path d="M16.0992 4.49234H18.556V12.4396C18.556 13.8913 18.041 15.1259 17.0112 16.1433C15.9937 17.1732 14.7592 17.6881 13.3074 17.6881C11.6696 17.6881 10.3296 17.0615 9.28729 15.8083C8.23262 17.0615 6.88637 17.6881 5.24853 17.6881C3.79681 17.6881 2.56223 17.1732 1.54478 16.1433C0.514927 15.1259 0 13.8913 0 12.4396V4.49234H2.45676V12.4396C2.45676 13.2089 2.72973 13.8665 3.27568 14.4124C3.82162 14.9584 4.47924 15.2314 5.24853 15.2314C6.01782 15.2314 6.67543 14.9646 7.22138 14.431C7.76733 13.8851 8.0465 13.2275 8.05891 12.4582V4.49234H10.5157V12.4582C10.5157 13.2275 10.7886 13.8851 11.3346 14.431C11.8805 14.9646 12.5382 15.2314 13.3074 15.2314C14.0767 15.2314 14.7343 14.9584 15.2803 14.4124C15.8262 13.8665 16.0992 13.2089 16.0992 12.4396V4.49234Z" fill="black"/>
<path d="M41.3461 7.21939C40.5724 6.64237 39.7068 6.35386 38.7495 6.35386C37.7791 6.35386 36.907 6.64237 36.1332 7.21939C35.3857 7.79641 34.8677 8.53736 34.5792 9.44223H42.9001C42.6116 8.53736 42.0936 7.79641 41.3461 7.21939ZM45.5951 12.0192L34.5792 12.0388C34.8677 12.9306 35.3857 13.665 36.1332 14.242C36.907 14.819 37.7791 15.1075 38.7495 15.1075C39.5232 15.1075 40.297 14.9305 41.0707 14.5764C41.8838 14.2092 42.4805 13.7437 42.8608 13.1798L45.0049 14.6354C44.3886 15.5534 43.4903 16.2944 42.31 16.8583C41.1428 17.4222 39.956 17.7041 38.7495 17.7041C36.8217 17.7041 35.1759 17.0222 33.812 15.6583C32.4482 14.2945 31.7662 12.6552 31.7662 10.7405C31.7662 8.81275 32.4482 7.16693 33.812 5.80306C35.1759 4.4392 36.8217 3.75726 38.7495 3.75726C40.6642 3.75726 42.3034 4.4392 43.6673 5.80306C45.0312 7.16693 45.7131 8.81275 45.7131 10.7405C45.7131 11.1733 45.6738 11.5995 45.5951 12.0192Z" fill="#FF481B"/>
<path d="M24.3239 7.21939C25.0976 6.64237 25.9632 6.35386 26.9205 6.35386C27.8909 6.35386 28.763 6.64237 29.5368 7.21939C30.2843 7.79641 30.8023 8.53736 31.0908 9.44223H22.7699C23.0584 8.53736 23.5764 7.79641 24.3239 7.21939ZM20.0749 12.0192L31.0908 12.0388C30.8023 12.9306 30.2843 13.665 29.5368 14.242C28.763 14.819 27.8909 15.1075 26.9205 15.1075C26.1468 15.1075 25.373 14.9305 24.5993 14.5764C23.7862 14.2092 23.1895 13.7437 22.8092 13.1798L20.6651 14.6354C21.2814 15.5534 22.1798 16.2944 23.36 16.8583C24.5272 17.4222 25.714 17.7041 26.9205 17.7041C28.8483 17.7041 30.4941 17.0222 31.858 15.6583C33.2218 14.2945 33.9038 12.6552 33.9038 10.7405C33.9038 8.81275 33.2218 7.16693 31.858 5.80306C30.4941 4.4392 28.8483 3.75726 26.9205 3.75726C25.0058 3.75726 23.3666 4.4392 22.0027 5.80306C20.6388 7.16693 19.9569 8.81275 19.9569 10.7405C19.9569 11.1733 19.9963 11.5995 20.0749 12.0192Z" fill="#FF481B"/>
<path d="M50.7682 14.0333C51.5747 14.8398 52.5487 15.2431 53.6903 15.2431C54.8318 15.2431 55.812 14.8398 56.6309 14.0333C57.4374 13.2268 57.8407 12.2528 57.8407 11.1112C57.8407 9.96972 57.4374 8.9895 56.6309 8.17058C55.812 7.36407 54.8318 6.96081 53.6903 6.96081C52.5487 6.96081 51.5747 7.36407 50.7682 8.17058C49.9617 8.9895 49.5584 9.96972 49.5584 11.1112C49.5584 12.2528 49.9617 13.2268 50.7682 14.0333ZM60.2975 11.1112V17.6812H57.8407V16.1923C56.6123 17.1973 55.2288 17.6998 53.6903 17.6998C51.8787 17.6998 50.3277 17.0546 49.0373 15.7642C47.7469 14.4738 47.1017 12.9228 47.1017 11.1112C47.1017 9.28729 47.7469 7.7301 49.0373 6.43968C50.3277 5.14927 51.8787 4.50406 53.6903 4.50406C55.5142 4.50406 57.0714 5.14927 58.3618 6.43968C59.6522 7.7301 60.2975 9.28729 60.2975 11.1112Z" fill="black"/>
<path d="M67.0171 15.2431H71V17.6998H67.0171C65.9376 17.6998 65.0132 17.3214 64.2439 16.5645C63.487 15.7952 63.1086 14.8708 63.1086 13.7913L63.09 0H65.5467V4.50406H69.9019V6.96081H65.5467V13.7913C65.5467 14.1884 65.6894 14.5296 65.9748 14.815C66.2602 15.1004 66.6076 15.2431 67.0171 15.2431Z" fill="black"/>
</svg>
